<svg height="64" viewBox="0 0 0 0 750 0 200" width="64" xmlns="http://www.w3.org/2000/svg"><path d="m229.373 245.831c-.016.11-.02.217-.02.328v.048 63.147c-.315 3.706-3.419 6.621-7.219 6.621-.058 0-.086.017-.131.021h-62.447c-.007 0-.024 0-.036 0-.082 0-.156.009-.234.012h-39.001c-5.185 0-9.378-4.197-9.378-9.382 0-5.176 4.193-9.381 9.378-9.381.016 0 .032.008.057.008h80.751c.069-.013.107-.029.172-.029 4.91 0 8.935-3.772 9.345-8.571v-81.668c0-.02-.004-.049-.004-.066 0-5.184 4.201-9.381 9.382-9.381 5.172 0 9.385 4.197 9.385 9.381zm-161.173 18.006c0-5.172 4.197-9.374 9.385-9.374h.058 80.758c.062-.008.103-.025.165-.025 4.914 0 8.939-3.767 9.341-8.57v-81.672c0-.021 0-.041 0-.062 0-5.18 4.205-9.382 9.385-9.382 5.177 0 9.374 4.202 9.374 9.382v38.907c-.004.115-.013.225-.013.332 0 .02.009.037.009.053v63.142c-.324 3.71-3.432 6.626-7.232 6.626-.049 0-.086.017-.127.025h-62.442s-.037-.008-.045-.008c-.078 0-.152.008-.225.016h-39.006c-5.188 0-9.385-4.201-9.385-9.39zm-7.142-107.049c-5.181 0-9.379-4.198-9.379-9.378v-38.891c.005-.119.017-.246.017-.372 0-.017 0-.025 0-.046v-63.142c.312-3.714 3.42-6.63 7.216-6.63.033 0 .041-.004.061-.008h101.795c5.181 0 9.378 4.202 9.378 9.382 0 5.176-4.197 9.378-9.378 9.378-.024 0-.041 0-5.957 0h-80.759c5.83.003 5.785.024 5.721.024-4.903 0-8.933 3.768-9.341 8.571v81.668.066c0 5.18-4.203 9.378-9.374 9.378zm151.661-66.521c0 5.18-4.205 9.378-9.39 9.378-.016 0-.033 0-.062 0h-80.759c-.061.008-.098.025-.172.025-4.905 0-8.927 3.771-9.336 8.574v81.665.065c0 5.18-4.198 9.382-9.37 9.382-5.184 0-9.386-4.202-9.386-9.382v-38.887c.004-.126.013-.245.013-.377 0-.012-.005-.024-.005-.045v-63.141c.328-3.714 3.432-6.63 7.228-6.63.025 0 .046 0 .058-.013h101.791c5.185 0 9.39 4.206 9.39 9.386zm-61.824-90.268h-101.714l-.007.004c-.054 0-.102-.004-.156-.004-26.708 0-48.383 21.369-48.96 47.937l-.058.053v175.9c0 72.041 58.408 130.441 130.444 130.441h103.676l.09-.094c26.11-.999 46.991-22.363 47.118-48.687l.008-.008v-175.101c0-72.044-58.404-130.441-130.441-130.441" fill="#5b307f" fill-opacity=".941176" transform="matrix(.18062207 0 0 .18062207 6.592255 .000181)"/></svg>
