<?xml version="1.0" encoding="utf-8"?>
<!-- Generator: Adobe Illustrator 18.1.0, SVG Export Plug-In . SVG Version: 6.00 Build 0)  -->
<svg version="1.1" id="Layer_1" xmlns="http://www.w3.org/2000/svg" xmlns:xlink="http://www.w3.org/1999/xlink" x="0px" y="0px"
	 viewBox="0 0 1500 1500" enable-background="new 0 0 1500 1500" xml:space="preserve">
<g>
	<path fill="#385072" d="M1401.7,357.3C1030.5,322.7,762,101.1,762,101.1V159c0,0,231.7,210.6,594.9,242.2
		c0,0-25.9,731.8-594.9,1000.3v50C1419,1167.6,1401.7,357.3,1401.7,357.3z"/>
	<path fill="#385072" d="M797.9,480l9,53.8c35.3,6.9,68.2,20.7,97,40.1l44.2-31.6l59.1,59.1l-31.6,44.2c19.4,28.8,33,61.7,39.9,97
		l53.5,8.9v83.5l-53.5,8.9c-6.9,35.4-20.6,68.2-40,97.1l31.6,44.2l-59,59.1l-44.2-31.6c-28.8,19.4-61.7,33.9-97,40.8l-9,54.4H762
		v293.5c0,0,426.5-231.7,426.5-979.3c0,0-309.5-79-426.5-263.3v321H797.9z"/>
	<path fill="#00B3E6" d="M801.7,855.3c-15-0.2-24.7-3.8-39.7-10.2v1.1c15,5.8,25,9.1,39.6,9.1C802,855.4,801.4,855.3,801.7,855.3z"
		/>
	<path fill="#00B3E6" d="M793.7,665.1c-11.3,1-31.7,4.1-31.7,8.7v0.8C762,669.7,782.4,666.4,793.7,665.1z"/>
	<path fill="#00B3E6" d="M806.9,1053.6c35.3-6.8,68.2-21,97-40.4l44.2,31.4l59.1-59.2l-31.6-44.3c19.4-28.8,33-61.7,39.9-97.1
		l53.5-9v-83.5l-53.5-8.9c-6.9-35.4-20.6-68.2-40-97l31.6-44.2l-59-59.1l-44.2,31.6c-28.8-19.4-61.7-33.3-97-40.2l-9-53.8H762v139.5
		c88,1.3,171.7,78.6,171.7,173.9c0,95.3-83.7,172.6-171.7,173.9V1108h35.9L806.9,1053.6z"/>
	<path fill="#385072" d="M791.8,665.1c3.6-0.4,6.4-0.7,10.1-0.7c52.7,0,95,42.8,95,95.5c0,52.7-43,95.5-95.7,95.5
		c-0.4,0-0.9-0.1-1.3-0.1c-0.4,0,1.1,0.1,0.7,0.1c-14.5,0-23.7-3.3-38.7-9.1v121.1c88-1.3,171.7-78.6,171.7-173.9
		c0-95.3-83.7-172.6-171.7-173.9v54.3C762,669.2,780.5,666.1,791.8,665.1z"/>
	<path fill="#00B3E6" d="M1184.6,422.2c0,747.6-426.5,979.3-426.5,979.3c579.1-268.5,594.9-1000.3,594.9-1000.3
		C989.8,369.6,758.1,159,758.1,159C874,343.3,1184.6,422.2,1184.6,422.2z"/>
	<path fill="#385072" d="M762,1108h-47.6l-8.9-54.4c-35.3-6.8-68.2-21-97-40.4l-44.2,31.4l-59.1-59.2l31.6-44.3
		c-19.4-28.8-34.2-61.7-41.1-97.1l-54.7-9v-83.5l54.7-8.9c6.9-35.4,21.2-68.2,40.6-97l-31.4-44.2l59.2-59.1l44.3,31.6
		c28.8-19.4,61.7-33.3,97-40.2l9-53.8H762V159v-57.9c0,0-268.5,221.6-639.7,256.2c0,0-31.3,810.3,639.7,1094.2v-50V1108z"/>
	<path fill="#697894" d="M762,1108h-47.6l-8.9-54.4c-35.3-6.8-68.2-21-97-40.4l-44.2,31.4l-59.1-59.2l31.6-44.3
		c-19.4-28.8-34.2-61.7-41.1-97.1l-54.7-9v-83.5l54.7-8.9c6.9-35.4,21.2-68.2,40.6-97l-31.4-44.2l59.2-59.1l44.3,31.6
		c28.8-19.4,61.7-33.3,97-40.2l9-53.8H762V159v-57.9c0,0-268.5,221.6-639.7,256.2c0,0-31.3,810.3,639.7,1094.2v-50V1108z"/>
	<path fill="#00B3E6" d="M709.4,759.9c0-37.3,23.6-69.5,52.6-85.3v-0.8c-29,15.2-54.8,48.1-54.8,86.2c0,38.1,25.8,71,54.8,86.2v-1.1
		C733,829.4,709.4,797.2,709.4,759.9z"/>
	<path opacity="0.3" fill="#FFFFFE" d="M709.4,759.9c0-37.3,23.6-69.5,52.6-85.3v-0.8c-29,15.2-54.8,48.1-54.8,86.2
		c0,38.1,25.8,71,54.8,86.2v-1.1C733,829.4,709.4,797.2,709.4,759.9z"/>
	<path fill="#00B3E6" d="M757.7,967.4c-90.3,0-165.5-68.8-174.1-156.9c0.9,0.1,1.2,0.3,2.1,0.3c21.1,0,38.1-17.2,38.1-38.3
		c0-18.8-13.7-34.4-31.6-37.6c24-67.3,90.1-115.6,165.6-115.6c0.8,0,4.3,0.1,4.3,0.1V480h-47.6l-8.9,53.8
		c-35.3,6.9-68.2,20.7-97,40.1l-44.3-31.6l-59.1,59.1l31.6,44.2c-19.4,28.8-34.2,61.7-41.1,97l-54.7,8.9v83.5l54.7,8.9
		c6.9,35.4,21.2,68.2,40.6,97.1l-31.4,44.2l59.2,59.1l44.3-31.6c28.8,19.4,61.7,33.9,97.1,40.8l9,54.4H762V967.3
		C762,967.3,758.5,967.4,757.7,967.4z"/>
	<path opacity="0.3" fill="#FFFFFE" d="M757.7,967.4c-90.3,0-165.5-68.8-174.1-156.9c0.9,0.1,1.2,0.3,2.1,0.3
		c21.1,0,38.1-17.2,38.1-38.3c0-18.8-13.7-34.4-31.6-37.6c24-67.3,90.1-115.6,165.6-115.6c0.8,0,4.3,0.1,4.3,0.1V480h-47.6
		l-8.9,53.8c-35.3,6.9-68.2,20.7-97,40.1l-44.3-31.6l-59.1,59.1l31.6,44.2c-19.4,28.8-34.2,61.7-41.1,97l-54.7,8.9v83.5l54.7,8.9
		c6.9,35.4,21.2,68.2,40.6,97.1l-31.4,44.2l59.2,59.1l44.3-31.6c28.8,19.4,61.7,33.9,97.1,40.8l9,54.4H762V967.3
		C762,967.3,758.5,967.4,757.7,967.4z"/>
	<path fill="#385072" d="M592,734.9c17.9,3.2,31.5,18.8,31.5,37.6c0,21.1-17.2,38.3-38.3,38.3c-0.9,0-1.7-0.2-2.6-0.3
		c8.6,88.1,84.8,156.9,175.1,156.9c0.8,0,4.3-0.1,4.3-0.1V846.2c-29-15.2-54.8-48.1-54.8-86.2c0-38.2,25.8-71,54.8-86.2v-54.3
		c0,0-3.5-0.1-4.3-0.1C682.1,619.4,616.1,667.6,592,734.9z"/>
	<path fill="#697894" d="M592,734.9c17.9,3.2,31.5,18.8,31.5,37.6c0,21.1-17.2,38.3-38.3,38.3c-0.9,0-1.7-0.2-2.6-0.3
		c8.6,88.1,84.8,156.9,175.1,156.9c0.8,0,4.3-0.1,4.3-0.1V846.2c-29-15.2-54.8-48.1-54.8-86.2c0-38.2,25.8-71,54.8-86.2v-54.3
		c0,0-3.5-0.1-4.3-0.1C682.1,619.4,616.1,667.6,592,734.9z"/>
</g>
</svg>
